<?xml version="1.0" encoding="UTF-8"?>
<!DOCTYPE svg PUBLIC "-//W3C//DTD SVG 1.1//EN" "http://www.w3.org/Graphics/SVG/1.1/DTD/svg11.dtd">
<svg xmlns="http://www.w3.org/2000/svg" version="1.1" width="800px" height="442px" style="shape-rendering:geometricPrecision; text-rendering:geometricPrecision; image-rendering:optimizeQuality; fill-rule:evenodd; clip-rule:evenodd" xmlns:xlink="http://www.w3.org/1999/xlink">
<g><path style="opacity:1" fill="#fefefe" d="M -0.5,-0.5 C 59.1667,-0.5 118.833,-0.5 178.5,-0.5C 235.283,75.4564 292.283,151.29 349.5,227C 292.596,298.394 235.929,369.894 179.5,441.5C 119.5,441.5 59.5,441.5 -0.5,441.5C -0.5,294.167 -0.5,146.833 -0.5,-0.5 Z"/></g>
<g><path style="opacity:1" fill="#010101" d="M 178.5,-0.5 C 215.5,-0.5 252.5,-0.5 289.5,-0.5C 334.4,60.4123 379.733,121.079 425.5,181.5C 356.405,267.917 287.739,354.583 219.5,441.5C 206.167,441.5 192.833,441.5 179.5,441.5C 235.929,369.894 292.596,298.394 349.5,227C 292.283,151.29 235.283,75.4564 178.5,-0.5 Z"/></g>
<g><path style="opacity:1" fill="#fefefe" d="M 289.5,-0.5 C 386.5,-0.5 483.5,-0.5 580.5,-0.5C 511.444,85.8858 442.777,172.552 374.5,259.5C 419.516,320.178 464.516,380.845 509.5,441.5C 412.833,441.5 316.167,441.5 219.5,441.5C 287.739,354.583 356.405,267.917 425.5,181.5C 379.733,121.079 334.4,60.4123 289.5,-0.5 Z"/></g>
<g><path style="opacity:1" fill="#010101" d="M 580.5,-0.5 C 593.833,-0.5 607.167,-0.5 620.5,-0.5C 564.033,71.1361 507.367,142.636 450.5,214C 506.984,289.982 563.651,365.816 620.5,441.5C 583.5,441.5 546.5,441.5 509.5,441.5C 464.516,380.845 419.516,320.178 374.5,259.5C 442.777,172.552 511.444,85.8858 580.5,-0.5 Z"/></g>
<g><path style="opacity:1" fill="#fefefe" d="M 620.5,-0.5 C 680.167,-0.5 739.833,-0.5 799.5,-0.5C 799.5,146.833 799.5,294.167 799.5,441.5C 739.833,441.5 680.167,441.5 620.5,441.5C 563.651,365.816 506.984,289.982 450.5,214C 507.367,142.636 564.033,71.1361 620.5,-0.5 Z"/></g>
</svg>
