<?xml version="1.0" standalone="no"?>
<!DOCTYPE svg PUBLIC "-//W3C//DTD SVG 20010904//EN"
 "http://www.w3.org/TR/2001/REC-SVG-20010904/DTD/svg10.dtd">
<svg version="1.0" xmlns="http://www.w3.org/2000/svg"
 width="1920.000000pt" height="1920.000000pt" viewBox="0 0 1920.000000 1920.000000"
 preserveAspectRatio="xMidYMid meet">

<g transform="translate(0.000000,1920.000000) scale(0.100000,-0.100000)"
fill="#000000" stroke="none">
<path d="M9473 16202 c-101 -36 -170 -99 -221 -202 l-27 -55 0 -1210 0 -1210
27 -57 c34 -74 107 -146 183 -184 55 -26 69 -29 165 -29 93 0 112 3 162 27
112 52 195 159 217 282 15 83 15 2259 0 2341 -23 125 -96 222 -207 277 -58 29
-78 33 -157 36 -67 2 -103 -2 -142 -16z"/>
<path d="M4583 14876 c-250 -81 -352 -378 -203 -590 16 -23 435 -446 932 -942
796 -794 909 -904 956 -923 82 -34 152 -44 224 -31 90 17 145 46 214 115 116
115 144 276 73 431 -18 40 -197 224 -937 966 -1037 1038 -969 979 -1130 985
-55 2 -103 -2 -129 -11z"/>
<path d="M14383 14871 c-28 -10 -71 -33 -95 -49 -24 -17 -448 -437 -944 -934
-1027 -1029 -949 -938 -949 -1118 0 -93 3 -112 27 -162 73 -156 245 -247 411
-218 128 24 103 0 1088 988 1024 1026 958 950 967 1108 7 127 -29 217 -122
302 -72 66 -144 95 -246 99 -65 3 -97 -1 -137 -16z"/>
<path d="M9323 12729 c-312 -28 -699 -126 -965 -244 -902 -400 -1549 -1154
-1793 -2090 -76 -291 -99 -475 -99 -795 0 -149 5 -295 13 -350 66 -502 213
-918 461 -1315 482 -769 1265 -1289 2161 -1435 197 -32 307 -39 554 -35 308 4
532 37 823 120 190 54 301 98 517 205 615 305 1091 775 1400 1381 221 433 328
853 342 1334 9 321 -17 557 -93 864 -56 225 -116 388 -229 616 -260 526 -605
916 -1105 1249 -130 87 -466 257 -613 311 -204 75 -464 138 -699 171 -131 18
-534 26 -675 13z m617 -784 c58 -9 159 -29 225 -45 850 -203 1531 -884 1738
-1740 49 -198 62 -317 62 -560 0 -243 -13 -362 -62 -560 -112 -463 -376 -902
-726 -1208 -370 -323 -758 -503 -1247 -579 -161 -24 -500 -24 -665 1 -353 54
-682 179 -963 366 -163 109 -258 188 -398 332 -403 414 -622 905 -666 1495
-13 168 -2 380 27 548 84 485 296 900 639 1253 140 144 235 223 398 332 325
216 690 341 1123 384 84 8 415 -4 515 -19z"/>
<path d="M3233 9961 c-100 -34 -170 -98 -221 -201 -24 -49 -27 -66 -27 -160 0
-96 3 -110 29 -165 38 -76 110 -149 184 -183 l57 -27 1210 0 1210 0 57 27
c115 53 197 163 218 291 26 163 -65 334 -218 405 l-57 27 -1195 2 c-1129 2
-1198 1 -1247 -16z"/>
<path d="M13488 9956 c-77 -32 -134 -79 -179 -148 -47 -73 -63 -139 -57 -238
8 -137 91 -260 216 -318 l57 -27 1210 0 1210 0 57 27 c115 53 197 163 218 291
26 163 -65 334 -218 405 l-57 27 -1200 2 -1200 3 -57 -24z"/>
<path d="M6369 6810 c-127 -22 -82 19 -1057 -954 -497 -496 -916 -919 -932
-942 -16 -22 -38 -70 -50 -105 -62 -181 28 -383 208 -467 50 -24 69 -27 158
-27 176 0 95 -69 1146 983 980 982 946 945 969 1070 47 253 -187 487 -442 442z"/>
<path d="M12690 6806 c-117 -25 -217 -105 -268 -214 -24 -50 -27 -69 -27 -162
0 -183 -78 -92 973 -1141 1047 -1047 962 -974 1137 -974 87 0 107 3 157 27
152 71 235 207 226 372 -9 158 57 82 -967 1108 -982 984 -960 964 -1085 987
-70 13 -75 13 -146 -3z"/>
<path d="M9465 5930 c-68 -27 -142 -85 -182 -144 -67 -97 -64 -27 -61 -1342
l3 -1189 29 -60 c38 -76 110 -149 184 -183 50 -24 69 -27 162 -27 99 0 109 2
172 33 111 55 184 152 207 277 15 82 15 2258 0 2341 -22 123 -105 230 -217
282 -77 36 -221 42 -297 12z"/>
</g>
</svg>
